<svg width="582" height="550" viewBox="0 0 582 550" fill="none" xmlns="http://www.w3.org/2000/svg">
<path d="M290.71 520.62C207.67 520.62 130.81 479.16 85.09 409.71C82.05 405.1 83.33 398.9 87.94 395.86C92.55 392.82 98.76 394.1 101.79 398.71C143.79 462.52 214.42 500.61 290.7 500.61C344.52 500.61 396.66 481.37 437.5 446.45C477.9 411.9 504.94 364.16 513.62 312.03C514.53 306.58 519.67 302.91 525.13 303.81C530.58 304.72 534.26 309.87 533.35 315.32C523.9 372.08 494.47 424.05 450.5 461.65C406.04 499.67 349.29 520.61 290.7 520.61L290.71 520.62Z" fill="white"/>
<path d="M72.88 193.63C71.59 193.63 70.29 193.38 69.03 192.85C63.93 190.72 61.53 184.86 63.66 179.77C82.15 135.55 112.96 97.91 152.76 70.91C193.54 43.24 241.24 28.62 290.71 28.62C351.56 28.62 409.96 51.01 455.16 91.66C459.27 95.35 459.6 101.68 455.91 105.78C452.22 109.89 445.9 110.22 441.79 106.53C400.27 69.18 346.61 48.61 290.71 48.61C245.26 48.61 201.44 62.04 163.99 87.45C127.42 112.26 99.11 146.85 82.12 187.48C80.52 191.31 76.8 193.62 72.89 193.62L72.88 193.63Z" fill="white"/>
<path d="M151.65 221.11C149.27 217.94 145.99 215.26 141.83 213.03C137.67 210.8 132.78 209.02 127.18 207.69C121.58 206.36 115.54 205.51 109.09 205.14C102.64 204.78 95.9 204.89 88.9 205.49C81.9 206.08 74.93 207.18 67.99 208.78C62.04 210.15 56.24 211.9 50.6 214C44.96 216.11 39.61 218.6 34.56 221.48C29.51 224.36 24.86 227.6 20.61 231.2C16.36 234.82 12.7 238.86 9.62004 243.32C6.55004 247.78 4.16004 252.62 2.47004 257.85C0.790037 263.07 -0.0399632 268.73 3.67798e-05 274.79C0.0400368 281.04 1.41004 283.86 4.11004 283.23C6.08004 282.78 8.61004 280.36 11.72 275.96C14.83 271.57 18.35 265.24 22.29 256.97C24.24 253.85 27.09 250.78 30.85 247.8C34.61 244.81 38.93 242.09 43.8 239.62C48.68 237.16 53.93 234.97 59.57 233.04C63.68 231.59 69.45 230.01 76.87 228.29C81.47 227.23 86.01 226.39 90.5 225.75C94.98 225.12 99.25 224.75 103.31 224.66C107.37 224.56 111.12 224.74 114.56 225.19C118 225.64 121 226.39 123.56 227.45C126.11 228.51 128.11 229.92 129.53 231.67C130.96 233.42 131.68 235.55 131.7 238.02C131.72 241.82 130.84 245.58 129.05 249.32C127.25 253.07 124.7 256.56 121.37 259.82C118.04 263.08 114 265.98 109.25 268.54C104.5 271.1 99.18 273.06 93.29 274.42C90.77 275 88.42 275.43 86.24 275.72C84.06 276.01 81.65 276.45 79.01 277.06C77.04 277.51 75.49 278.03 74.36 278.61C73.23 279.18 72.37 279.84 71.79 280.6C71.21 281.35 70.85 282.23 70.7 283.22C70.55 284.21 70.48 285.36 70.49 286.66C70.51 289.42 71.2 291.51 72.55 292.93C73.91 294.35 75.69 295.38 77.88 296.04C80.06 296.71 82.55 297.09 85.35 297.2C88.15 297.31 91.01 297.42 93.93 297.54C96.86 297.66 99.71 297.88 102.51 298.22C105.31 298.55 107.8 299.3 109.99 300.43C112.18 301.57 113.95 303.21 115.32 305.33C116.69 307.45 117.38 310.35 117.41 314.02C117.45 320.85 116.34 326.73 114.07 331.66C111.79 336.59 108.76 340.9 104.98 344.59C101.19 348.28 96.84 351.35 91.94 353.77C87.04 356.2 81.98 358.02 76.76 359.22C72.46 360.21 68.16 360.76 63.87 360.87C59.57 360.98 55.54 360.83 51.79 360.43C51.3 360.16 50.92 359.66 50.68 358.93C50.43 358.2 50.22 357.38 50.06 356.46C49.9 355.54 49.82 354.65 49.81 353.76C49.81 352.87 49.8 352.18 49.8 351.67C49.78 348.53 49.8 345.24 49.87 341.8C49.94 338.36 50.06 334.89 50.22 331.4C50.38 327.9 50.56 324.33 50.75 320.67C50.94 317.01 51.18 313.67 51.47 310.65C51.93 305.32 52.56 299.84 53.35 294.19C54.14 288.54 55.04 283.74 56.07 279.8C57.09 275.86 58.58 271.28 60.55 266.04C62.51 260.82 64.89 255.92 67.69 251.39C64.65 246.99 60.89 245.3 56.41 246.34C52.85 247.16 48.9 249.6 44.56 253.65C39.64 262.26 35.85 270.82 33.2 279.34C30.55 287.86 28.46 297.64 26.93 308.69C25.4 319.74 24.41 330.78 23.96 341.81C23.51 352.84 23.31 363.55 23.38 373.95C23.39 376.01 24.06 377.28 25.38 377.77C26.7 378.27 28.23 378.52 29.95 378.52C33.83 378.94 37.95 379.21 42.31 379.35C46.68 379.49 51.12 379.45 55.64 379.24C60.15 379.03 64.63 378.65 69.05 378.12C73.47 377.58 77.67 376.86 81.67 375.94C87.99 374.48 93.79 372.45 99.06 369.87C104.32 367.28 109.06 364.31 113.25 360.96C117.44 357.62 121.08 353.99 124.19 350.06C127.3 346.14 129.89 342.11 131.95 337.97C134.01 333.84 135.55 329.68 136.57 325.47C137.59 321.27 138.09 317.26 138.06 313.42C138.03 308.55 137.23 303.94 135.67 299.57C134.1 295.22 131.78 291.7 128.69 289.02C125.6 286.35 121.77 284.54 117.22 283.6C112.66 282.65 107.35 282.88 101.27 284.29C110.84 281.9 119.04 278.69 125.87 274.69C132.7 270.69 138.29 266.3 142.65 261.53C147.01 256.77 150.21 251.82 152.24 246.69C154.26 241.56 155.26 236.61 155.23 231.83C155.2 227.82 154 224.23 151.61 221.08L151.65 221.11Z" fill="white"/>
<path d="M175.46 238.39C178.06 240.38 182.05 240.76 187.46 239.51C190.58 238.79 193.27 237.69 195.5 236.2C197.73 234.72 199.59 233.02 201.05 231.12C202.51 229.22 203.57 227.2 204.24 225.04C204.9 222.88 205.23 220.75 205.21 218.62C205.19 216.31 204.77 214.41 203.93 212.91C203.09 211.41 201.96 210.31 200.54 209.61C199.12 208.91 197.46 208.52 195.55 208.46C193.65 208.39 191.62 208.62 189.47 209.11C186.03 209.9 183.17 211.11 180.87 212.74C178.58 214.37 176.74 216.14 175.37 218.05C174 219.96 173.01 221.89 172.41 223.85C171.81 225.81 171.51 227.5 171.52 228.93C171.55 233.25 172.86 236.4 175.45 238.4L175.46 238.39Z" fill="white"/>
<path d="M569.46 211.51C567.08 214.36 564.18 217.47 560.76 220.84C557.34 224.21 553.7 227.43 549.85 230.49C545.99 233.57 542.03 236.3 537.96 238.7C533.88 241.09 530.01 242.71 526.33 243.56C525.16 243.83 524.07 243.96 523.04 243.96C522.02 243.95 521.05 243.75 520.12 243.36C519.19 242.97 518.27 242.33 517.37 241.45C516.47 240.57 515.56 239.41 514.62 237.99C519.96 235.3 524.91 232.13 529.48 228.47C534.05 224.81 537.97 220.94 541.27 216.83C544.57 212.74 547.45 208.08 549.91 202.84C552.37 197.6 553.59 193.11 553.56 189.36C553.54 185.83 552.9 182.79 551.66 180.23C550.41 177.68 548.69 175.64 546.5 174.13C544.3 172.63 541.73 171.65 538.77 171.22C535.82 170.79 532.62 170.97 529.18 171.76C524.97 172.73 521.14 174.37 517.7 176.66C514.26 178.95 511.16 181.68 508.4 184.87C505.64 188.05 503.23 191.53 501.18 195.35C499.13 199.15 497.42 203.06 496.08 207.03C494.74 211 493.43 215.52 492.18 220.55C490.93 225.58 490.32 229.8 490.34 233.23C490.36 235.75 490.54 238.18 490.89 240.51C491.08 241.76 491.31 242.99 491.59 244.19C491.31 242.99 491.07 241.76 490.89 240.51C490.16 241.19 489.43 241.85 488.71 242.49C487.02 244.01 485.27 245.52 483.45 247.04C481.63 248.56 479.86 249.93 478.14 251.17C476.42 252.41 474.79 253.46 473.25 254.32C471.72 255.17 470.35 255.73 469.16 256.01C468.67 256.12 468.14 255.88 467.58 255.3C467.02 254.71 466.49 253.86 465.99 252.76C465.48 251.65 465.06 250.38 464.71 248.92C464.36 247.47 464.19 245.93 464.18 244.31V243C464.34 241.71 464.58 240.37 464.89 238.99C465.19 237.61 465.49 236.31 465.78 235.08C466.08 233.86 466.4 232.7 466.73 231.63C467.07 230.56 467.38 229.67 467.69 228.97C470.48 222.7 473.54 216.23 476.85 209.58C480.17 202.92 483.46 196.18 486.74 189.34C490.02 182.5 493.17 175.65 496.2 168.78C499.22 161.92 501.88 155.14 504.17 148.47C506.46 141.81 508.27 135.28 509.61 128.89C510.94 122.5 511.59 116.39 511.55 110.54C511.53 108.18 511.3 105.92 510.86 103.75C510.41 101.58 509.66 99.71 508.59 98.16C507.52 96.61 506.06 95.5 504.2 94.83C502.34 94.16 499.99 94.16 497.15 94.82C493.24 95.72 489.4 97.74 485.64 100.87C481.87 104 478.27 107.95 474.82 112.69C471.38 117.45 468.09 122.84 464.96 128.89C461.83 134.94 458.94 141.33 456.29 148.07C453.63 154.81 450.99 163.56 448.38 174.31C445.77 185.06 444.52 190.16 444.46 190.43C444.42 190.69 443.61 195.7 441.91 206.25C440.2 216.81 439.38 225.12 439.41 231.19C439.43 234.8 439.61 238.29 439.94 241.67C438.31 243.96 436.5 246.36 434.52 248.86C431.28 252.95 427.89 256.81 424.31 260.42C420.74 264.03 417.18 267.17 413.62 269.81C410.07 272.46 406.83 274.12 403.88 274.8C400.88 275.49 398.44 275.39 396.53 274.5C394.63 273.61 393.07 272.29 391.87 270.56C390.66 268.83 389.86 266.8 389.45 264.47C389.03 262.15 388.82 259.87 388.81 257.64C388.81 256.15 388.85 254.3 388.96 252.07C389.07 249.84 389.37 247.47 389.88 244.93C390.38 242.4 391.23 239.21 392.44 235.37C393.63 231.52 394.85 228.49 396.1 226.25C397.34 224.01 398.84 222.08 400.61 220.47C402.37 218.85 404.51 217.75 407.01 217.17C408.05 216.93 408.72 217.27 409.03 218.19C409.34 219.11 409.5 220.31 409.51 221.8C409.58 223.51 409.56 224.64 409.44 225.16C408.55 228.96 408.01 231.38 407.83 232.41C407.29 234.39 407.77 236.42 409.28 238.49C410.2 239.83 412.2 240.14 415.31 239.42C417.37 238.94 419.21 238.03 420.83 236.66C422.45 235.29 424.11 233.03 425.82 229.88C427.53 226.73 428.67 224.06 429.26 221.88C429.85 219.7 430.13 217.56 430.12 215.45C430.1 212.42 429.44 209.74 428.15 207.4C426.86 205.06 425.08 203.19 422.82 201.79C420.55 200.4 417.83 199.52 414.66 199.17C411.49 198.82 408.04 199.07 404.31 199.93C400.18 200.88 396.39 202.52 392.94 204.84C389.49 207.15 386.38 209.92 383.58 213.13C380.79 216.34 378.34 219.9 376.24 223.79C374.13 227.69 372.37 231.67 370.94 235.75C369.52 239.83 368.2 244.53 367 249.82C365.8 255.12 365.2 259.56 365.23 263.15C365.23 264.52 365.3 265.86 365.42 267.18C363.85 269.65 362.35 271.91 360.94 273.97C357.71 278.65 354.78 282.59 352.16 285.8C349.54 289 347.15 291.63 345.01 293.67C342.86 295.71 340.86 297.48 339 298.96C340.54 288.03 342.07 277.8 343.57 268.24C344.23 264.19 345.09 258.86 346.15 252.21C347.21 245.57 348.03 240.4 348.62 236.72C349.21 233.04 349.74 229.76 350.2 226.87C350.66 223.98 351.03 221.68 351.3 219.96C351.48 219.18 351.57 218.5 351.57 217.94C351.56 216.15 350.9 214.98 349.61 214.44C348.31 213.91 346.71 213.85 344.81 214.29C343.21 214.66 341.52 215.33 339.74 216.3C337.96 217.26 336.25 218.52 334.59 220.04C332.94 221.57 331.5 223.28 330.28 225.17C329 227.14 328.15 229.19 327.73 231.34L320.58 267.76C320.35 269.81 319.83 272.43 319.02 275.62C318.21 278.8 317.14 281.95 315.81 285.07C314.48 288.19 312.9 290.96 311.07 293.38C309.24 295.8 307.19 297.27 304.92 297.79C303.5 298.12 302.34 298.03 301.41 297.52C300.48 297.01 299.74 296.25 299.18 295.22C298.62 294.19 298.23 292.97 298.01 291.54C297.78 290.12 297.67 288.62 297.66 287.07C297.64 284.06 297.98 280.57 298.69 276.57C299.39 272.56 300.35 267.15 301.55 260.33C302.75 253.5 303.71 248.04 304.43 243.94C305.15 239.85 306.05 236.25 307.11 233.15C307.46 232.14 307.72 231.21 307.86 230.37C308.01 229.53 308.08 228.77 308.08 228.09C308.07 225.8 307.28 224.29 305.75 223.56C304.21 222.83 302.36 222.71 300.22 223.2C297.7 223.78 295.13 225.1 292.5 227.17C289.87 229.23 287.86 231.82 286.47 234.93C284.59 239.27 282.93 243.52 281.48 247.66C280.03 251.81 278.79 257.31 277.75 264.15C276.72 271 275.85 276.74 275.14 281.39C275.08 281.76 275.03 282.14 274.98 282.51C274.04 283.76 273.06 285.04 272.03 286.34C268.79 290.43 265.4 294.29 261.82 297.9C258.24 301.51 254.69 304.65 251.13 307.29C247.58 309.94 244.34 311.6 241.39 312.28C238.39 312.97 235.94 312.87 234.04 311.98C232.14 311.09 230.58 309.77 229.38 308.04C228.17 306.31 227.37 304.28 226.96 301.95C226.54 299.63 226.33 297.35 226.32 295.12C226.32 293.63 226.36 291.78 226.47 289.55C226.58 287.32 226.88 284.95 227.39 282.41C227.89 279.88 228.74 276.69 229.95 272.85C231.14 269 232.36 265.97 233.61 263.73C234.85 261.49 236.35 259.56 238.12 257.95C239.89 256.34 242.02 255.23 244.52 254.65C245.56 254.41 246.23 254.75 246.54 255.67C246.85 256.59 247.01 257.79 247.02 259.28C247.09 260.99 247.07 262.12 246.95 262.64C246.06 266.44 245.52 268.86 245.34 269.89C244.8 271.87 245.28 273.9 246.79 275.97C247.71 277.31 249.71 277.62 252.82 276.9C254.88 276.42 256.72 275.51 258.34 274.14C259.96 272.77 261.62 270.51 263.33 267.36C265.04 264.21 266.18 261.54 266.77 259.36C267.36 257.18 267.64 255.04 267.63 252.93C267.61 249.9 266.95 247.22 265.66 244.88C264.37 242.54 262.59 240.67 260.33 239.27C258.06 237.88 255.34 237 252.17 236.65C248.99 236.3 245.55 236.55 241.82 237.41C237.69 238.36 233.9 240 230.45 242.32C227 244.63 223.89 247.4 221.09 250.61C218.3 253.82 215.85 257.38 213.75 261.27C211.64 265.17 209.88 269.15 208.45 273.23C207.03 277.31 205.71 282.01 204.51 287.3C203.31 292.6 202.71 297.04 202.74 300.63C202.76 303.41 203.01 306.08 203.48 308.64C201.74 310.55 199.97 312.42 198.17 314.28C195.42 317.12 192.71 319.62 190.01 321.78C187.32 323.96 184.87 325.3 182.66 325.81C180.75 326.25 179.49 325.72 178.87 324.22C178.25 322.72 177.92 320.58 177.9 317.8C177.88 314.95 178.31 311.69 179.16 308C180.02 304.32 180.73 300.65 181.29 296.99C181.85 293.33 182.9 288.82 184.45 283.45C186 278.09 187.16 273.73 187.95 270.36C188.73 266.99 189.43 264 190.05 261.36C190.66 258.73 190.96 256.73 190.96 255.37C190.95 253.76 190.49 252.58 189.58 251.83C188.67 251.08 186.94 251 184.41 251.58C183.03 251.9 181.47 252.43 179.76 253.17C178.04 253.91 176.39 254.82 174.79 255.91C173.2 257 171.77 258.26 170.52 259.68C169.14 261.25 168.3 262.85 168.01 264.49C167.48 266.85 166.07 271.99 163.79 279.92C161.34 289.57 159.7 295.81 158.89 298.65C158.39 300.09 157.29 306.39 155.6 317.56C154.77 322.96 154.38 327.61 154.4 331.51C154.42 334.3 154.72 336.79 155.32 338.97C155.92 341.15 156.9 342.9 158.26 344.2C159.62 345.5 161.39 346.34 163.58 346.74C165.77 347.13 168.45 346.96 171.65 346.22C175.21 345.4 178.96 343.88 182.92 341.66C186.87 339.45 190.74 336.93 194.53 334.1C198.32 331.27 201.85 328.32 205.12 325.23C206.39 324.03 207.58 322.88 208.69 321.76C208.32 321.23 207.97 320.69 207.63 320.13C207.97 320.69 208.32 321.24 208.69 321.76C209.6 323.06 210.61 324.25 211.72 325.34C214.65 328.2 218.26 330.18 222.57 331.29C226.87 332.41 231.87 332.31 237.55 330.99C240.8 330.24 243.99 328.99 247.15 327.24C250.3 325.49 253.33 323.45 256.24 321.14C259.14 318.83 261.93 316.31 264.58 313.59C267.24 310.87 269.7 308.13 271.95 305.38C272.85 304.28 273.75 303.17 274.63 302.04C274.96 303.83 275.47 305.47 276.13 306.97C277.44 309.93 279.17 312.28 281.33 314.05C283.49 315.81 285.98 316.97 288.78 317.54C291.58 318.1 294.45 318.04 297.4 317.36C300.77 316.58 304.25 314.87 307.83 312.24C311.41 309.6 314.85 306.44 318.14 302.73L316.18 314.42C312.33 318.72 309.02 322.67 306.25 326.28C303.48 329.89 299.96 334.64 295.69 340.51C293.56 343.36 291.52 346.45 289.58 349.82C287.63 353.24 286.2 355.85 285.29 357.64C284.38 359.43 282.8 362.62 280.56 367.23C276.56 375.46 274.82 382.79 275.35 389.24C275.62 392.64 276.47 395.47 277.89 397.71C279.32 399.95 281.13 401.56 283.35 402.54C285.57 403.51 288.01 404.05 290.68 404.14C293.35 404.24 296.24 403.93 299.37 403.21C303.23 402.32 306.77 400.88 310.01 398.9C313.25 396.91 316.01 394.64 318.3 392.1C320.58 389.55 322.66 386.64 324.55 383.35C326.43 380.06 327.94 376.84 329.09 373.7C330.23 370.55 331.23 367.15 332.06 363.53C332.9 359.89 333.47 356.7 333.79 353.94C334.1 351.18 334.44 348.28 334.8 345.24C334.87 343.99 335.09 342.18 335.42 339.83C336.18 331.66 336.86 326.03 337.46 322.95C338.06 319.86 339.19 317.58 340.87 316.07C347.74 309.84 351.78 306.06 353.01 304.72C357.04 300.54 359.27 298.24 359.7 297.84C361.05 296.54 363.24 294.13 366.29 290.59C368.03 288.54 369.67 286.46 371.24 284.36C372.13 285.62 373.11 286.77 374.2 287.83C377.13 290.68 380.74 292.67 385.05 293.78C389.35 294.9 394.35 294.8 400.03 293.48C403.28 292.73 406.47 291.48 409.63 289.73C412.79 287.98 415.81 285.94 418.71 283.63C421.62 281.32 424.4 278.8 427.05 276.08C429.71 273.36 432.17 270.62 434.42 267.87C437.28 264.4 440.04 260.74 442.69 256.9C443.71 260.58 444.93 263.86 446.35 266.77C448.49 271.16 450.99 274.47 453.85 276.71C456.71 278.95 459.79 279.69 463.1 278.92C465.25 278.42 467.55 277.61 470.02 276.48C472.48 275.35 475 274.02 477.59 272.48C480.18 270.94 482.75 269.27 485.3 267.47C487.86 265.67 490.33 263.87 492.72 262.08C494.54 260.68 496.37 259.24 498.2 257.75C497.28 256.71 496.45 255.58 495.69 254.37C496.45 255.58 497.28 256.7 498.2 257.75C498.49 258.08 498.79 258.41 499.1 258.73C501.99 261.69 505.59 263.74 509.9 264.89C514.22 266.04 519.24 265.95 524.97 264.63C528.66 263.78 532.29 262.51 535.88 260.82C539.46 259.13 542.92 257.18 546.26 254.97C549.6 252.77 552.78 250.39 555.8 247.84C558.82 245.28 561.65 242.75 564.28 240.23C570.33 234.37 576.03 227.91 581.39 220.86L569.43 211.43L569.46 211.51ZM315.99 342.88C315.63 346.06 315.33 348.78 315.08 351.05C314.83 353.31 314.43 355.4 313.89 357.33C312.92 360.9 312.13 363.77 311.5 365.92C310.87 368.08 310.14 370.29 309.33 372.56C308.51 374.82 307.75 376.61 307.01 377.92C306.28 379.23 305.43 380.49 304.45 381.67C303.47 382.86 302.4 383.77 301.24 384.41C300.08 385.05 298.76 385.54 297.28 385.88C293.23 386.81 292.2 384.08 294.19 377.67C296.61 370.04 299.88 362.35 304.01 354.57C308.15 346.8 312.36 340.87 316.65 336.78C316.55 337.66 316.32 339.69 315.97 342.86L315.99 342.88ZM462.74 205.37C463.01 198.96 463.95 191.36 465.55 182.6C467.15 173.83 467.9 169.66 467.94 169.44C468.01 169.2 469.26 164.6 471.91 154.93C474.56 145.27 476.84 138.2 478.76 133.74C480.68 129.28 482.61 125.64 484.54 122.84C486.48 120.04 488.29 118.44 489.97 118.05C490.44 117.94 490.71 118.52 490.81 119.78C490.9 121.04 490.96 122.57 490.97 124.38C490.45 130.19 489.2 136.63 487.21 143.67C485.22 150.73 482.86 157.88 480.13 165.14C477.4 172.39 474.5 179.5 471.43 186.46C468.36 193.42 465.46 199.72 462.72 205.35L462.74 205.37ZM492.59 247.72C492.44 247.28 492.31 246.83 492.18 246.39C492.31 246.84 492.44 247.28 492.59 247.72C492.92 248.71 493.28 249.66 493.67 250.57C493.27 249.66 492.91 248.7 492.59 247.72ZM512.56 218.47C512.68 216.56 513.23 214.04 514.23 210.9C515.22 207.76 516.1 205.12 516.86 202.97C517.62 200.82 518.62 198.84 519.87 197C521.12 195.17 522.69 193.55 524.56 192.15C526.43 190.74 528.69 189.74 531.35 189.13C532.83 188.79 534.08 189.37 535.11 190.9C536.13 192.43 536.66 194.55 536.68 197.26C536.69 199.2 535.63 201.9 533.5 205.36C531.36 208.83 529.17 211.69 526.93 213.96C524.69 216.24 522.27 218.24 519.66 219.96C517.05 221.68 514.63 222.8 512.42 223.31C512.42 221.97 512.46 220.36 512.57 218.45L512.56 218.47Z" fill="white"/>
<path d="M290.71 549.24C287.95 549.24 285.71 547 285.71 544.24C285.71 541.48 287.95 539.24 290.71 539.24C354.69 539.24 416.45 516.1 464.6 474.09C512.29 432.48 543.54 375.26 552.58 312.96C552.98 310.23 555.52 308.34 558.25 308.73C560.98 309.13 562.88 311.66 562.48 314.4C553.1 379.06 520.67 438.45 471.18 481.63C421.21 525.23 357.12 549.24 290.72 549.24H290.71Z" fill="white"/>
<path d="M36.83 188.63C36.27 188.63 35.7 188.54 35.14 188.34C32.54 187.41 31.19 184.55 32.12 181.95C51.03 129.19 85.22 83.98 130.99 51.21C177.76 17.7 232.99 0 290.71 0C293.47 0 295.71 2.24 295.71 5C295.71 7.76 293.47 10 290.71 10C235.09 10 181.87 27.06 136.81 59.33C92.7 90.92 59.75 134.48 41.53 185.32C40.8 187.36 38.87 188.63 36.82 188.63H36.83Z" fill="white"/>
<path d="M380.16 340.84C378.92 340.44 377.31 340.19 375.34 340.06C373.44 339.97 372.09 339.71 371.3 339.28C370.51 338.85 370.12 338.05 370.11 336.89C370.11 335.53 370.53 334.36 371.41 333.37C372.29 332.37 373.49 331.7 375.02 331.35C377.56 330.76 379.89 331.28 382 332.9L383.4 328.66C382.44 327.77 381.22 327.19 379.72 326.91C378.22 326.63 376.65 326.69 374.99 327.07C373.18 327.49 371.58 328.24 370.21 329.34C368.84 330.43 367.78 331.74 367.04 333.27C366.3 334.81 365.93 336.44 365.94 338.19C365.96 340.63 366.64 342.32 368 343.29C369.35 344.25 371.52 344.79 374.48 344.91C376.39 345 377.75 345.25 378.58 345.65C379.41 346.05 379.84 346.81 379.84 347.92C379.84 349.23 379.4 350.34 378.51 351.27C377.62 352.19 376.36 352.85 374.72 353.23C373.24 353.57 371.87 353.63 370.62 353.4C369.37 353.18 368.17 352.66 367.01 351.84L365.58 356.08C366.69 356.96 368.04 357.52 369.62 357.76C371.2 358.01 372.9 357.92 374.71 357.5C376.63 357.06 378.29 356.31 379.71 355.26C381.12 354.22 382.19 352.95 382.93 351.46C383.68 349.97 384.04 348.34 384.03 346.57C384.02 344.97 383.68 343.7 383.01 342.79C382.34 341.88 381.39 341.22 380.15 340.83L380.16 340.84Z" fill="white"/>
<path d="M410.81 319.18L410.89 331.56L398.79 334.35L398.71 321.97L394.5 322.95L394.69 352.52L398.9 351.55L398.82 338.71L410.91 335.92L411 348.76L415.23 347.78L415.04 318.2L410.81 319.18Z" fill="white"/>
<path d="M443.23 313.15C441.53 312.32 439.54 312.17 437.24 312.7C434.95 313.23 432.95 314.3 431.27 315.91C429.59 317.51 428.31 319.57 427.41 322.06C426.52 324.55 426.08 327.34 426.1 330.41C426.12 333.51 426.6 336.1 427.53 338.17C428.46 340.25 429.77 341.71 431.47 342.55C433.17 343.39 435.15 343.55 437.43 343.02C439.73 342.49 441.71 341.42 443.39 339.8C445.06 338.18 446.34 336.12 447.23 333.63C448.12 331.14 448.56 328.34 448.54 325.24C448.52 322.16 448.06 319.58 447.15 317.51C446.24 315.43 444.94 313.97 443.24 313.15H443.23ZM442.49 334.75C441.28 336.92 439.59 338.25 437.4 338.76C435.21 339.26 433.51 338.72 432.28 337.11C431.05 335.5 430.43 332.95 430.4 329.43C430.38 325.91 430.96 323.08 432.17 320.94C433.37 318.81 435.06 317.48 437.25 316.98C439.44 316.47 441.14 317.02 442.37 318.61C443.6 320.19 444.22 322.74 444.24 326.23C444.26 329.75 443.67 332.58 442.47 334.75H442.49Z" fill="white"/>
<path d="M475.62 306.52C474.19 305.31 472.21 305 469.67 305.59L459.43 307.95L459.62 337.53L463.9 336.54L463.82 324.2L469.78 322.82C472.3 322.24 474.26 321.01 475.68 319.13C477.1 317.25 477.79 314.98 477.77 312.32C477.75 309.66 477.04 307.73 475.61 306.51L475.62 306.52ZM472.62 316.87C471.86 317.81 470.74 318.45 469.27 318.79L463.81 320.05L463.75 311.11L469.21 309.85C470.71 309.5 471.84 309.63 472.6 310.22C473.35 310.8 473.74 311.83 473.75 313.3C473.75 314.74 473.38 315.93 472.62 316.87Z" fill="white"/>
</svg>
